<?xml version="1.0" encoding="UTF-8" standalone="no"?>
<!DOCTYPE svg PUBLIC "-//W3C//DTD SVG 1.1//EN" "http://www.w3.org/Graphics/SVG/1.1/DTD/svg11.dtd">
<!-- Created with Vectornator (http://vectornator.io/) -->
<svg height="100%" stroke-miterlimit="10" style="fill-rule:nonzero;clip-rule:evenodd;stroke-linecap:round;stroke-linejoin:round;" version="1.1" viewBox="0 0 1024 1024" width="100%" xml:space="preserve" xmlns="http://www.w3.org/2000/svg" xmlns:vectornator="http://vectornator.io" xmlns:xlink="http://www.w3.org/1999/xlink">
<defs/>
<g id="Ebene-1" vectornator:layerName="Ebene 1">
<g opacity="1" vectornator:layerName="Gruppieren 3">
<g opacity="1" vectornator:layerName="Gruppieren 2">
<path d="M491.469 205.61C494.665 205.61 497.062 208.274 497.062 211.204L497.062 269.003L297.295 269.003L297.295 211.204C297.295 208.008 299.959 205.61 302.889 205.61L491.469 205.61ZM491.469 145.68L303.155 145.68C266.664 145.68 237.365 174.98 237.365 211.204L237.365 328.933L556.992 328.933L556.992 211.204C556.992 174.98 527.693 145.68 491.469 145.68Z" fill="#000000" fill-rule="nonzero" opacity="1" stroke="none" vectornator:layerName="path"/>
<path d="M728.525 784.668L65.832 784.668C42.9254 784.668 24.2805 766.023 24.2805 743.117L24.2805 465.451L50.6788 453.257L24.2805 438.773L24.2805 335.326C24.2805 289.246 61.5703 252.223 107.384 252.223L686.708 252.223C732.787 252.223 769.811 289.513 769.811 335.326L769.811 439.157L750.007 452.493L769.811 465.451L769.811 743.383C770.077 766.023 751.432 784.668 728.525 784.668Z" fill="#a90200" fill-rule="nonzero" opacity="1" stroke="none" vectornator:layerName="path 1"/>
<path d="M770.077 438.672L24.2805 438.672L24.2805 465.307L770.077 465.307L770.077 438.672Z" fill="#5b0100" fill-rule="nonzero" opacity="1" stroke="none" vectornator:layerName="path 2"/>
<path d="M157.458 466.906C157.458 437.34 181.43 413.634 210.73 413.634C240.029 413.634 264.001 437.606 263.734 466.906L263.734 502.864C263.734 511.92 256.543 519.378 247.22 519.378L173.973 519.378C164.916 519.378 157.458 512.186 157.458 502.864L157.458 466.906Z" fill="#d3d3d3" fill-rule="nonzero" opacity="1" stroke="none" vectornator:layerName="path 3"/>
<path d="M530.357 466.906C530.357 437.34 554.329 413.634 583.628 413.634C612.927 413.634 636.899 437.606 636.633 466.906L636.633 502.864C636.633 511.92 629.441 519.378 620.119 519.378L546.871 519.378C537.815 519.378 530.357 512.186 530.357 502.864L530.357 466.906Z" fill="#d3d3d3" fill-rule="nonzero" opacity="1" stroke="none" vectornator:layerName="path 4"/>
<path d="M650.217 599.817L144.141 599.817C136.683 599.817 130.823 605.677 130.823 613.135C130.823 620.593 136.683 626.453 144.141 626.453L650.217 626.453C657.675 626.453 663.535 620.593 663.535 613.135C663.535 605.943 657.675 599.817 650.217 599.817Z" fill="#d3d3d3" fill-rule="nonzero" opacity="1" stroke="none" vectornator:layerName="path 5"/>
<path d="M144.141 679.724L650.217 679.724C657.675 679.724 663.535 685.85 663.535 693.042C663.535 700.5 657.675 706.359 650.217 706.359L144.141 706.359C136.683 706.359 130.823 700.5 130.823 693.042C130.823 685.584 136.683 679.724 144.141 679.724Z" fill="#d3d3d3" fill-rule="nonzero" opacity="1" stroke="none" vectornator:layerName="path 6"/>
</g>
<g opacity="1" vectornator:layerName="Gruppieren 1">
<path d="M923.9 445.917C825.54 350.052 668.802 350.472 571.367 446.569C557.831 441.67 543.238 439.002 528.058 439.002C482.561 439.002 442.684 462.877 420.2 498.705C321.679 504.846 243.764 586.609 243.764 686.686C243.764 730.956 259.19 771.704 284.681 803.938C319.311 849.219 373.761 878.32 435.145 878.32L755.545 878.32C835.107 878.32 905.373 839.139 948.302 779.2C1024.35 679.331 1015.89 535.941 923.935 445.953L923.9 445.917Z" fill="#000000" fill-rule="nonzero" opacity="1" stroke="none" vectornator:layerName="path 7"/>
<path d="M585.877 467.785C673.236 378.154 816.645 376.639 906.276 463.998C989.09 545.043 996.665 674.314 927.99 764.198C889.613 817.976 826.745 853.071 755.545 853.071L435.145 853.071C381.871 853.071 334.657 827.823 304.612 788.436C282.393 760.411 269.012 725.063 269.012 686.686C269.012 596.55 341.979 523.582 432.115 523.582C433.202 523.582 434.285 523.595 435.366 523.615C451.512 488.573 486.944 464.25 528.058 464.25C545.947 464.25 562.762 468.855 577.378 476.944C580.108 473.834 582.94 470.779 585.877 467.785Z" fill="#ffffff" fill-rule="nonzero" opacity="1" stroke="none" vectornator:layerName="path 8"/>
</g>
</g>
</g>
</svg>
